<?xml version="1.0" encoding="utf-8"?>
<svg version="1.1" xmlns:xlink="http://www.w3.org/1999/xlink" width="13px" height="15px" xmlns="http://www.w3.org/2000/svg">
  <g transform="matrix(1 0 0 1 -222 -72 )">
    <path d="M 3.61111111111111 4.77272727272727  L 3.61111111111111 6.81818181818182  L 9.38888888888889 6.81818181818182  L 9.38888888888889 4.77272727272727  C 9.38888888888889 4.01988636363636  9.10677083333333 3.37713068181818  8.54253472222222 2.84446022727273  C 7.97829861111111 2.31178977272727  7.29745370370371 2.04545454545455  6.5 2.04545454545455  C 5.7025462962963 2.04545454545455  5.02170138888889 2.31178977272727  4.45746527777778 2.84446022727273  C 3.89322916666667 3.37713068181818  3.61111111111111 4.01988636363636  3.61111111111111 4.77272727272727  Z M 12.6840277777778 7.11647727272727  C 12.8946759259259 7.31534090909091  13 7.55681818181818  13 7.84090909090909  L 13 13.9772727272727  C 13 14.2613636363636  12.8946759259259 14.5028409090909  12.6840277777778 14.7017045454545  C 12.4733796296296 14.9005681818182  12.2175925925926 15  11.9166666666667 15  L 1.08333333333333 15  C 0.782407407407408 15  0.52662037037037 14.9005681818182  0.315972222222222 14.7017045454545  C 0.105324074074074 14.5028409090909  0 14.2613636363636  0 13.9772727272727  L 0 7.84090909090909  C 0 7.55681818181818  0.105324074074074 7.31534090909091  0.315972222222222 7.11647727272727  C 0.52662037037037 6.91761363636364  0.782407407407408 6.81818181818182  1.08333333333333 6.81818181818182  L 1.44444444444444 6.81818181818182  L 1.44444444444444 4.77272727272727  C 1.44444444444444 3.46590909090909  1.94097222222222 2.34375  2.93402777777778 1.40625  C 3.92708333333333 0.46875  5.11574074074074 0  6.5 0  C 7.88425925925926 0  9.07291666666667 0.46875  10.0659722222222 1.40625  C 11.0590277777778 2.34375  11.5555555555556 3.46590909090909  11.5555555555556 4.77272727272727  L 11.5555555555556 6.81818181818182  L 11.9166666666667 6.81818181818182  C 12.2175925925926 6.81818181818182  12.4733796296296 6.91761363636364  12.6840277777778 7.11647727272727  Z " fill-rule="nonzero" fill="#aaaaaa" stroke="none" transform="matrix(1 0 0 1 222 72 )" />
  </g>
</svg>