<?xml version="1.0" encoding="utf-8"?>
<svg version="1.1" xmlns:xlink="http://www.w3.org/1999/xlink" width="17px" height="31px" xmlns="http://www.w3.org/2000/svg">
  <g transform="matrix(1 0 0 1 -510 -170 )">
    <path d="M 16.1291759465479 7.88040865384615  C 16.3689680772086 7.88040865384615  16.5835189309577 7.97355769230769  16.7728285077951 8.15985576923077  C 17 8.4082532051282  17.0441722345954 8.68149038461538  16.9053452115813 8.97956730769231  L 6.6826280623608 30.5342548076923  C 6.51855976243504 30.8447516025641  6.25352635486266 31  5.88752783964365 31  C 5.83704528582034 31  5.74870081662955 30.9875801282051  5.62249443207127 30.9627403846154  C 5.4079435783222 30.900641025641  5.24703043801039 30.7826522435897  5.13975501113586 30.6087740384615  C 5.03247958426132 30.4348958333333  5.00408314773571 30.2485977564103  5.05456570155902 30.0498798076923  L 8.78396436525613 14.9969951923077  L 1.09799554565702 16.8786057692308  C 1.0475129918337 16.8910256410256  0.971789161098738 16.8972355769231  0.870824053452116 16.8972355769231  C 0.643652561247216 16.8972355769231  0.448032665181886 16.8289262820513  0.283964365256125 16.6923076923077  C 0.0567928730512249 16.5060096153846  -0.0252412769116555 16.2638221153846  0.0378619153674833 15.9657451923077  L 3.84298440979955 0.596153846153847  C 3.89346696362287 0.42227564102564  3.99443207126949 0.279447115384617  4.14587973273942 0.167668269230769  C 4.29732739420935 0.055889423076922  4.47401633259094 0  4.67594654788419 0  L 10.8853006681514 0  C 11.1250927988122 0  11.3270230141054 0.0776241987179446  11.4910913140312 0.232872596153847  C 11.6551596139569 0.388120993589744  11.7371937639198 0.571314102564101  11.7371937639198 0.782451923076922  C 11.7371937639198 0.881810897435896  11.7056421677803 0.993589743589744  11.6425389755011 1.11778846153846  L 8.40534521158129 9.74338942307692  L 15.902004454343 7.91766826923077  C 16.0029695619896 7.89282852564102  16.0786933927246 7.88040865384615  16.1291759465479 7.88040865384615  Z " fill-rule="nonzero" fill="#000000" stroke="none" transform="matrix(1 0 0 1 510 170 )" />
  </g>
</svg>