<?xml version="1.0" encoding="utf-8"?>
<svg version="1.1" xmlns:xlink="http://www.w3.org/1999/xlink" width="24px" height="36px" xmlns="http://www.w3.org/2000/svg">
  <g transform="matrix(1 0 0 1 -498 -161 )">
    <path d="M 16.37109375 8.390625  C 16.95703125 8.984375  17.25 9.6875  17.25 10.5  C 17.25 10.703125  17.17578125 10.87890625  17.02734375 11.02734375  C 16.87890625 11.17578125  16.703125 11.25  16.5 11.25  C 16.296875 11.25  16.12109375 11.17578125  15.97265625 11.02734375  C 15.82421875 10.87890625  15.75 10.703125  15.75 10.5  C 15.75 9.78125  15.328125 9.2265625  14.484375 8.8359375  C 13.640625 8.4453125  12.8125 8.25  12 8.25  C 11.796875 8.25  11.62109375 8.17578125  11.47265625 8.02734375  C 11.32421875 7.87890624999999  11.25 7.70312499999999  11.25 7.5  C 11.25 7.296875  11.32421875 7.12109375  11.47265625 6.97265625  C 11.62109375 6.82421874999999  11.796875 6.75  12 6.75  C 12.78125 6.75  13.55859375 6.875  14.33203125 7.125  C 15.10546875 7.375  15.78515625 7.796875  16.37109375 8.390625  Z M 19.40625 14.71875  C 20.46875 13.484375  21 12.078125  21 10.5  C 21 9.375  20.73046875 8.328125  20.19140625 7.359375  C 19.65234375 6.390625  18.94921875 5.59765625  18.08203125 4.98046875  C 17.21484375 4.36328124999999  16.25390625 3.87890625  15.19921875 3.52734375  C 14.14453125 3.17578125  13.078125 3  12 3  C 10.921875 3  9.85546875 3.17578125  8.80078125 3.52734375  C 7.74609375 3.87890625  6.78515625 4.36328124999999  5.91796875 4.98046875  C 5.05078125 5.59765625  4.34765625 6.390625  3.80859375 7.359375  C 3.26953125 8.328125  3 9.375  3 10.5  C 3 12.078125  3.53125 13.484375  4.59375 14.71875  C 4.75 14.890625  4.98828125 15.1484375  5.30859375 15.4921875  C 5.62890625 15.8359375  5.8671875 16.09375  6.0234375 16.265625  C 8.0234375 18.65625  9.125 20.984375  9.328125 23.25  L 14.671875 23.25  C 14.875 20.984375  15.9765625 18.65625  17.9765625 16.265625  C 18.1328125 16.09375  18.37109375 15.8359375  18.69140625 15.4921875  C 19.01171875 15.1484375  19.25 14.890625  19.40625 14.71875  Z M 22.95703125 6.17578125  C 23.65234375 7.51171875  24 8.953125  24 10.5  C 24 12.921875  23.1953125 15.015625  21.5859375 16.78125  C 20.8828125 17.546875  20.30078125 18.2265625  19.83984375 18.8203125  C 19.37890625 19.4140625  18.9140625 20.16015625  18.4453125 21.05859375  C 17.9765625 21.95703125  17.7109375 22.796875  17.6484375 23.578125  C 18.3828125 24.015625  18.75 24.65625  18.75 25.5  C 18.75 26.078125  18.5546875 26.578125  18.1640625 27  C 18.5546875 27.421875  18.75 27.921875  18.75 28.5  C 18.75 29.3125  18.3984375 29.9453125  17.6953125 30.3984375  C 17.8984375 30.7578125  18 31.125  18 31.5  C 18 32.21875  17.75390625 32.7734375  17.26171875 33.1640625  C 16.76953125 33.5546875  16.1640625 33.75  15.4453125 33.75  C 15.1328125 34.4375  14.6640625 34.984375  14.0390625 35.390625  C 13.4140625 35.796875  12.734375 36  12 36  C 11.265625 36  10.5859375 35.796875  9.9609375 35.390625  C 9.3359375 34.984375  8.8671875 34.4375  8.5546875 33.75  C 7.8359375 33.75  7.23046875 33.5546875  6.73828125 33.1640625  C 6.24609375 32.7734375  6 32.21875  6 31.5  C 6 31.125  6.1015625 30.7578125  6.3046875 30.3984375  C 5.6015625 29.9453125  5.25 29.3125  5.25 28.5  C 5.25 27.921875  5.4453125 27.421875  5.8359375 27  C 5.4453125 26.578125  5.25 26.078125  5.25 25.5  C 5.25 24.65625  5.6171875 24.015625  6.3515625 23.578125  C 6.2890625 22.796875  6.0234375 21.95703125  5.5546875 21.05859375  C 5.0859375 20.16015625  4.62109375 19.4140625  4.16015625 18.8203125  C 3.69921875 18.2265625  3.1171875 17.546875  2.4140625 16.78125  C 0.8046875 15.015625  0 12.921875  0 10.5  C 0 8.953125  0.34765625 7.51171875  1.04296875 6.17578125  C 1.73828125 4.83984375  2.65234375 3.73046875  3.78515625 2.84765625  C 4.91796875 1.96484375  6.19921875 1.26953125  7.62890625 0.761718749999999  C 9.05859375 0.253906249999998  10.515625 0  12 0  C 13.484375 0  14.94140625 0.253906249999998  16.37109375 0.761718749999999  C 17.80078125 1.26953125  19.08203125 1.96484375  20.21484375 2.84765625  C 21.34765625 3.73046875  22.26171875 4.83984375  22.95703125 6.17578125  Z " fill-rule="nonzero" fill="#000000" stroke="none" transform="matrix(1 0 0 1 498 161 )" />
  </g>
</svg>