<?xml version="1.0" encoding="utf-8"?>
<svg version="1.1" xmlns:xlink="http://www.w3.org/1999/xlink" width="11px" height="18px" xmlns="http://www.w3.org/2000/svg">
  <g transform="matrix(1 0 0 1 -359 -348 )">
    <path d="M 10.8109965635739 8.58517034068136  C 10.9369988545246 8.70541082164329  11 8.84368737474951  11 9  C 11 9.15631262525049  10.9369988545246 9.29458917835671  10.8109965635739 9.41482965931864  L 2.00343642611685 17.8196392785571  C 1.8774341351661 17.939879759519  1.73253150057274 18  1.56872852233677 18  C 1.4049255441008 18  1.26002290950745 17.939879759519  1.1340206185567 17.8196392785571  L 0.189003436426109 16.9178356713427  C 0.0630011454753626 16.7975951903808  0 16.6593186372745  0 16.5030060120241  C 0 16.3466933867735  0.0630011454753626 16.2084168336673  0.189003436426109 16.0881763527054  L 7.61683848797251 9  L 5.52041614697625 6.99944248093672  L 0.189003436426109 1.91182364729458  C 0.0630011454753626 1.79158316633267  0 1.65330661322646  0 1.49699398797594  C 0 1.34068136272545  0.0630011454753626 1.20240480961924  0.189003436426109 1.08216432865732  L 1.1340206185567 0.18036072144288  C 1.26002290950745 0.0601202404809669  1.4049255441008 0  1.56872852233677 0  C 1.73253150057274 0  1.8774341351661 0.0601202404809669  2.00343642611685 0.18036072144288  L 10.8109965635739 8.58517034068136  Z " fill-rule="nonzero" fill="#aaaaaa" stroke="none" transform="matrix(1 0 0 1 359 348 )" />
  </g>
</svg>