<?xml version="1.0" encoding="utf-8"?>
<svg version="1.1" xmlns:xlink="http://www.w3.org/1999/xlink" width="11px" height="19px" xmlns="http://www.w3.org/2000/svg">
  <g transform="matrix(1 0 0 1 -839 -351 )">
    <path d="M 10.8109965635739 9.06212424849699  C 10.9369988545246 9.18904475617903  11 9.33500334001337  11 9.5  C 11 9.66499665998663  10.9369988545246 9.81095524382097  10.8109965635739 9.93787575150301  L 2.00343642611685 18.809619238477  C 1.8774341351661 18.936539746159  1.73253150057274 19  1.56872852233677 19  C 1.4049255441008 19  1.26002290950745 18.936539746159  1.1340206185567 18.809619238477  L 0.189003436426109 17.8577154308617  C 0.0630011454753626 17.7307949231797  0 17.5848363393454  0 17.4198396793587  C 0 17.2548430193721  0.0630011454753626 17.1088844355377  0.189003436426109 16.9819639278557  L 7.61683848797251 9.5  L 5.52041614697625 7.38830039654432  L 0.189003436426109 2.01803607214428  C 0.0630011454753626 1.89111556446226  0 1.74515698062793  0 1.58016032064127  C 0 1.41516366065464  0.0630011454753626 1.2692050768203  0.189003436426109 1.14228456913829  L 1.1340206185567 0.19038076152304  C 1.26002290950745 0.0634602538410206  1.4049255441008 0  1.56872852233677 0  C 1.73253150057274 0  1.8774341351661 0.0634602538410206  2.00343642611685 0.19038076152304  L 10.8109965635739 9.06212424849699  Z " fill-rule="nonzero" fill="#aaaaaa" stroke="none" transform="matrix(1 0 0 1 839 351 )" />
  </g>
</svg>