<?xml version="1.0" encoding="utf-8"?>
<svg version="1.1" xmlns:xlink="http://www.w3.org/1999/xlink" width="10px" height="17px" xmlns="http://www.w3.org/2000/svg">
  <g transform="matrix(1 0 0 1 -776 -160 )">
    <path d="M 9.82817869415808 8.10821643286573  C 9.94272623138603 8.22177688710755  10 8.35237140948565  10 8.5  C 10 8.64762859051435  9.94272623138603 8.77822311289245  9.82817869415808 8.89178356713427  L 1.82130584192441 16.8296593186373  C 1.70675830469645 16.9432197728791  1.57502863688431 17  1.42611683848798 17  C 1.27720504009164 17  1.1454753722795 16.9432197728791  1.03092783505155 16.8296593186373  L 0.171821305841918 15.9779559118236  C 0.057273768613966 15.8643954575818  0 15.7338009352037  0 15.5861723446894  C 0 15.438543754175  0.057273768613966 15.3079492317969  0.171821305841918 15.1943887775551  L 6.92439862542956 8.5  L 5.01856013361478 6.61058456532913  L 0.171821305841918 1.80561122244489  C 0.057273768613966 1.69205076820308  0 1.56145624582499  0 1.41382765531061  C 0 1.26619906479626  0.057273768613966 1.13560454241817  0.171821305841918 1.02204408817636  L 1.03092783505155 0.17034068136272  C 1.1454753722795 0.0567802271209132  1.27720504009164 0  1.42611683848798 0  C 1.57502863688431 0  1.70675830469645 0.0567802271209132  1.82130584192441 0.17034068136272  L 9.82817869415808 8.10821643286573  Z " fill-rule="nonzero" fill="#7f7f7f" stroke="none" transform="matrix(1 0 0 1 776 160 )" />
  </g>
</svg>